<svg width="280" height="210" viewBox="0 0 280 210" fill="none" xmlns="http://www.w3.org/2000/svg">
<g clip-path="url(#clip0_1_91)">
<rect width="280" height="210" rx="44" fill="#EAF4FF"/>
<path d="M37.832 55V40.432H32.24V37.72H46.316V40.432H40.724V55H37.832ZM52.2048 55.36C50.8928 55.36 49.7408 55.076 48.7488 54.508C47.7568 53.94 46.9808 53.152 46.4208 52.144C45.8688 51.136 45.5928 49.976 45.5928 48.664C45.5928 47.248 45.8648 46.02 46.4088 44.98C46.9528 43.932 47.7088 43.12 48.6768 42.544C49.6448 41.968 50.7648 41.68 52.0368 41.68C53.3808 41.68 54.5208 41.996 55.4568 42.628C56.4008 43.252 57.1008 44.136 57.5568 45.28C58.0128 46.424 58.1848 47.772 58.0728 49.324H55.2048V48.268C55.1968 46.86 54.9488 45.832 54.4608 45.184C53.9728 44.536 53.2048 44.212 52.1568 44.212C50.9728 44.212 50.0928 44.58 49.5168 45.316C48.9408 46.044 48.6528 47.112 48.6528 48.52C48.6528 49.832 48.9408 50.848 49.5168 51.568C50.0928 52.288 50.9328 52.648 52.0368 52.648C52.7488 52.648 53.3608 52.492 53.8728 52.18C54.3928 51.86 54.7928 51.4 55.0728 50.8L57.9288 51.664C57.4328 52.832 56.6648 53.74 55.6248 54.388C54.5928 55.036 53.4528 55.36 52.2048 55.36ZM47.7408 49.324V47.14H56.6568V49.324H47.7408ZM59.5503 55V54.604L66.4143 44.572H60.2463V42.04H70.9143V42.448L64.0743 52.468H70.6263V55H59.5503ZM84.0759 55.36C82.7799 55.36 81.6479 55.068 80.6799 54.484C79.7119 53.9 78.9599 53.096 78.4239 52.072C77.8959 51.04 77.6319 49.856 77.6319 48.52C77.6319 47.16 77.9039 45.968 78.4479 44.944C78.9919 43.92 79.7479 43.12 80.7159 42.544C81.6839 41.968 82.8039 41.68 84.0759 41.68C85.3799 41.68 86.5159 41.972 87.4839 42.556C88.4519 43.14 89.2039 43.948 89.7399 44.98C90.2759 46.004 90.5439 47.184 90.5439 48.52C90.5439 49.864 90.2719 51.052 89.7279 52.084C89.1919 53.108 88.4399 53.912 87.4719 54.496C86.5039 55.072 85.3719 55.36 84.0759 55.36ZM84.0759 52.648C85.2279 52.648 86.0839 52.264 86.6439 51.496C87.2039 50.728 87.4839 49.736 87.4839 48.52C87.4839 47.264 87.1999 46.264 86.6319 45.52C86.0639 44.768 85.2119 44.392 84.0759 44.392C83.2999 44.392 82.6599 44.568 82.1559 44.92C81.6599 45.264 81.2919 45.748 81.0519 46.372C80.8119 46.988 80.6919 47.704 80.6919 48.52C80.6919 49.776 80.9759 50.78 81.5439 51.532C82.1199 52.276 82.9639 52.648 84.0759 52.648ZM93.1878 55V42.04H95.7438V45.196L95.4318 44.788C95.5918 44.356 95.8038 43.964 96.0678 43.612C96.3398 43.252 96.6638 42.956 97.0398 42.724C97.3598 42.508 97.7118 42.34 98.0958 42.22C98.4878 42.092 98.8878 42.016 99.2958 41.992C99.7038 41.96 100.1 41.976 100.484 42.04V44.74C100.1 44.628 99.6558 44.592 99.1518 44.632C98.6558 44.672 98.2078 44.812 97.8078 45.052C97.4078 45.268 97.0798 45.544 96.8238 45.88C96.5758 46.216 96.3918 46.6 96.2718 47.032C96.1518 47.456 96.0918 47.916 96.0918 48.412V55H93.1878ZM106.093 55.36C105.157 55.36 104.365 55.184 103.717 54.832C103.069 54.472 102.577 53.996 102.241 53.404C101.913 52.812 101.749 52.16 101.749 51.448C101.749 50.824 101.853 50.264 102.061 49.768C102.269 49.264 102.589 48.832 103.021 48.472C103.453 48.104 104.013 47.804 104.701 47.572C105.221 47.404 105.829 47.252 106.525 47.116C107.229 46.98 107.989 46.856 108.805 46.744C109.629 46.624 110.489 46.496 111.385 46.36L110.353 46.948C110.361 46.052 110.161 45.392 109.753 44.968C109.345 44.544 108.657 44.332 107.689 44.332C107.105 44.332 106.541 44.468 105.997 44.74C105.453 45.012 105.073 45.48 104.857 46.144L102.217 45.316C102.537 44.22 103.145 43.34 104.041 42.676C104.945 42.012 106.161 41.68 107.689 41.68C108.841 41.68 109.853 41.868 110.725 42.244C111.605 42.62 112.257 43.236 112.681 44.092C112.913 44.548 113.053 45.016 113.101 45.496C113.149 45.968 113.173 46.484 113.173 47.044V55H110.641V52.192L111.061 52.648C110.477 53.584 109.793 54.272 109.009 54.712C108.233 55.144 107.261 55.36 106.093 55.36ZM106.669 53.056C107.325 53.056 107.885 52.94 108.349 52.708C108.813 52.476 109.181 52.192 109.453 51.856C109.733 51.52 109.921 51.204 110.017 50.908C110.169 50.54 110.253 50.12 110.269 49.648C110.293 49.168 110.305 48.78 110.305 48.484L111.193 48.748C110.321 48.884 109.573 49.004 108.949 49.108C108.325 49.212 107.789 49.312 107.341 49.408C106.893 49.496 106.497 49.596 106.153 49.708C105.817 49.828 105.533 49.968 105.301 50.128C105.069 50.288 104.889 50.472 104.761 50.68C104.641 50.888 104.581 51.132 104.581 51.412C104.581 51.732 104.661 52.016 104.821 52.264C104.981 52.504 105.213 52.696 105.517 52.84C105.829 52.984 106.213 53.056 106.669 53.056ZM121.493 55.36C120.301 55.36 119.261 55.06 118.373 54.46C117.485 53.86 116.797 53.044 116.309 52.012C115.821 50.98 115.577 49.816 115.577 48.52C115.577 47.208 115.821 46.04 116.309 45.016C116.805 43.984 117.505 43.172 118.409 42.58C119.313 41.98 120.377 41.68 121.601 41.68C122.833 41.68 123.865 41.98 124.697 42.58C125.537 43.172 126.173 43.984 126.605 45.016C127.037 46.048 127.253 47.216 127.253 48.52C127.253 49.808 127.037 50.972 126.605 52.012C126.173 53.044 125.529 53.86 124.673 54.46C123.817 55.06 122.757 55.36 121.493 55.36ZM121.937 52.768C122.713 52.768 123.337 52.592 123.809 52.24C124.289 51.88 124.637 51.38 124.853 50.74C125.077 50.1 125.189 49.36 125.189 48.52C125.189 47.672 125.077 46.932 124.853 46.3C124.637 45.66 124.297 45.164 123.833 44.812C123.369 44.452 122.769 44.272 122.033 44.272C121.257 44.272 120.617 44.464 120.113 44.848C119.609 45.224 119.237 45.736 118.997 46.384C118.757 47.024 118.637 47.736 118.637 48.52C118.637 49.312 118.753 50.032 118.985 50.68C119.225 51.32 119.589 51.828 120.077 52.204C120.565 52.58 121.185 52.768 121.937 52.768ZM125.189 55V45.904H124.829V37.72H127.745V55H125.189ZM134.734 55.36C133.798 55.36 133.006 55.184 132.358 54.832C131.71 54.472 131.218 53.996 130.882 53.404C130.554 52.812 130.39 52.16 130.39 51.448C130.39 50.824 130.494 50.264 130.702 49.768C130.91 49.264 131.23 48.832 131.662 48.472C132.094 48.104 132.654 47.804 133.342 47.572C133.862 47.404 134.47 47.252 135.166 47.116C135.87 46.98 136.63 46.856 137.446 46.744C138.27 46.624 139.13 46.496 140.026 46.36L138.994 46.948C139.002 46.052 138.802 45.392 138.394 44.968C137.986 44.544 137.298 44.332 136.33 44.332C135.746 44.332 135.182 44.468 134.638 44.74C134.094 45.012 133.714 45.48 133.498 46.144L130.858 45.316C131.178 44.22 131.786 43.34 132.682 42.676C133.586 42.012 134.802 41.68 136.33 41.68C137.482 41.68 138.494 41.868 139.366 42.244C140.246 42.62 140.898 43.236 141.322 44.092C141.554 44.548 141.694 45.016 141.742 45.496C141.79 45.968 141.814 46.484 141.814 47.044V55H139.282V52.192L139.702 52.648C139.118 53.584 138.434 54.272 137.65 54.712C136.874 55.144 135.902 55.36 134.734 55.36ZM135.31 53.056C135.966 53.056 136.526 52.94 136.99 52.708C137.454 52.476 137.822 52.192 138.094 51.856C138.374 51.52 138.562 51.204 138.658 50.908C138.81 50.54 138.894 50.12 138.91 49.648C138.934 49.168 138.946 48.78 138.946 48.484L139.834 48.748C138.962 48.884 138.214 49.004 137.59 49.108C136.966 49.212 136.43 49.312 135.982 49.408C135.534 49.496 135.138 49.596 134.794 49.708C134.458 49.828 134.174 49.968 133.942 50.128C133.71 50.288 133.53 50.472 133.402 50.68C133.282 50.888 133.222 51.132 133.222 51.412C133.222 51.732 133.302 52.016 133.462 52.264C133.622 52.504 133.854 52.696 134.158 52.84C134.47 52.984 134.854 53.056 135.31 53.056ZM35.384 88.76L37.88 81.908L37.928 83.924L32.276 70.04H35.288L39.296 80.312H38.528L42.428 70.04H45.32L38.096 88.76H35.384ZM50.2649 83.36C49.3289 83.36 48.5369 83.184 47.8889 82.832C47.2409 82.472 46.7489 81.996 46.4129 81.404C46.0849 80.812 45.9209 80.16 45.9209 79.448C45.9209 78.824 46.0249 78.264 46.2329 77.768C46.4409 77.264 46.7609 76.832 47.1929 76.472C47.6249 76.104 48.1849 75.804 48.8729 75.572C49.3929 75.404 50.0009 75.252 50.6969 75.116C51.4009 74.98 52.1609 74.856 52.9769 74.744C53.8009 74.624 54.6609 74.496 55.5569 74.36L54.5249 74.948C54.5329 74.052 54.3329 73.392 53.9249 72.968C53.5169 72.544 52.8289 72.332 51.8609 72.332C51.2769 72.332 50.7129 72.468 50.1689 72.74C49.6249 73.012 49.2449 73.48 49.0289 74.144L46.3889 73.316C46.7089 72.22 47.3169 71.34 48.2129 70.676C49.1169 70.012 50.3329 69.68 51.8609 69.68C53.0129 69.68 54.0249 69.868 54.8969 70.244C55.7769 70.62 56.4289 71.236 56.8529 72.092C57.0849 72.548 57.2249 73.016 57.2729 73.496C57.3209 73.968 57.3449 74.484 57.3449 75.044V83H54.8129V80.192L55.2329 80.648C54.6489 81.584 53.9649 82.272 53.1809 82.712C52.4049 83.144 51.4329 83.36 50.2649 83.36ZM50.8409 81.056C51.4969 81.056 52.0569 80.94 52.5209 80.708C52.9849 80.476 53.3529 80.192 53.6249 79.856C53.9049 79.52 54.0929 79.204 54.1889 78.908C54.3409 78.54 54.4249 78.12 54.4409 77.648C54.4649 77.168 54.4769 76.78 54.4769 76.484L55.3649 76.748C54.4929 76.884 53.7449 77.004 53.1209 77.108C52.4969 77.212 51.9609 77.312 51.5129 77.408C51.0649 77.496 50.6689 77.596 50.3249 77.708C49.9889 77.828 49.7049 77.968 49.4729 78.128C49.2409 78.288 49.0609 78.472 48.9329 78.68C48.8129 78.888 48.7529 79.132 48.7529 79.412C48.7529 79.732 48.8329 80.016 48.9929 80.264C49.1529 80.504 49.3849 80.696 49.6889 80.84C50.0009 80.984 50.3849 81.056 50.8409 81.056ZM69.4331 83V76.76C69.4331 76.352 69.4051 75.9 69.3491 75.404C69.2931 74.908 69.1611 74.432 68.9531 73.976C68.7531 73.512 68.4491 73.132 68.0411 72.836C67.6411 72.54 67.0971 72.392 66.4091 72.392C66.0411 72.392 65.6771 72.452 65.3171 72.572C64.9571 72.692 64.6291 72.9 64.3331 73.196C64.0451 73.484 63.8131 73.884 63.6371 74.396C63.4611 74.9 63.3731 75.548 63.3731 76.34L61.6571 75.608C61.6571 74.504 61.8691 73.504 62.2931 72.608C62.7251 71.712 63.3571 71 64.1891 70.472C65.0211 69.936 66.0451 69.668 67.2611 69.668C68.2211 69.668 69.0131 69.828 69.6371 70.148C70.2611 70.468 70.7571 70.876 71.1251 71.372C71.4931 71.868 71.7651 72.396 71.9411 72.956C72.1171 73.516 72.2291 74.048 72.2771 74.552C72.3331 75.048 72.3611 75.452 72.3611 75.764V83H69.4331ZM60.4451 83V70.04H63.0251V74.06H63.3731V83H60.4451ZM80.9405 89.12C80.2205 89.12 79.5285 89.008 78.8645 88.784C78.2085 88.56 77.6165 88.236 77.0885 87.812C76.5605 87.396 76.1285 86.892 75.7925 86.3L78.4565 84.98C78.7045 85.452 79.0525 85.8 79.5005 86.024C79.9565 86.256 80.4405 86.372 80.9525 86.372C81.5525 86.372 82.0885 86.264 82.5605 86.048C83.0325 85.84 83.3965 85.528 83.6525 85.112C83.9165 84.704 84.0405 84.192 84.0245 83.576V79.892H84.3845V70.04H86.9165V83.624C86.9165 83.952 86.9005 84.264 86.8685 84.56C86.8445 84.864 86.8005 85.16 86.7365 85.448C86.5445 86.288 86.1765 86.976 85.6325 87.512C85.0885 88.056 84.4125 88.46 83.6045 88.724C82.8045 88.988 81.9165 89.12 80.9405 89.12ZM80.6885 83.36C79.4965 83.36 78.4565 83.06 77.5685 82.46C76.6805 81.86 75.9925 81.044 75.5045 80.012C75.0165 78.98 74.7725 77.816 74.7725 76.52C74.7725 75.208 75.0165 74.04 75.5045 73.016C76.0005 71.984 76.7005 71.172 77.6045 70.58C78.5085 69.98 79.5725 69.68 80.7965 69.68C82.0285 69.68 83.0605 69.98 83.8925 70.58C84.7325 71.172 85.3685 71.984 85.8005 73.016C86.2325 74.048 86.4485 75.216 86.4485 76.52C86.4485 77.808 86.2325 78.972 85.8005 80.012C85.3685 81.044 84.7245 81.86 83.8685 82.46C83.0125 83.06 81.9525 83.36 80.6885 83.36ZM81.1325 80.768C81.9085 80.768 82.5325 80.592 83.0045 80.24C83.4845 79.88 83.8325 79.38 84.0485 78.74C84.2725 78.1 84.3845 77.36 84.3845 76.52C84.3845 75.672 84.2725 74.932 84.0485 74.3C83.8325 73.66 83.4925 73.164 83.0285 72.812C82.5645 72.452 81.9645 72.272 81.2285 72.272C80.4525 72.272 79.8125 72.464 79.3085 72.848C78.8045 73.224 78.4325 73.736 78.1925 74.384C77.9525 75.024 77.8325 75.736 77.8325 76.52C77.8325 77.312 77.9485 78.032 78.1805 78.68C78.4205 79.32 78.7845 79.828 79.2725 80.204C79.7605 80.58 80.3805 80.768 81.1325 80.768ZM90.5216 68.072V65.42H93.4136V68.072H90.5216ZM90.5216 83V70.04H93.4136V83H90.5216ZM101.789 83L101.813 65.72H104.741V76.28L109.481 70.04H113.093L108.065 76.52L113.525 83H109.697L104.741 76.76V83H101.789ZM119.587 83.372C118.627 83.372 117.835 83.212 117.211 82.892C116.587 82.572 116.091 82.164 115.723 81.668C115.355 81.172 115.083 80.644 114.907 80.084C114.731 79.524 114.615 78.996 114.559 78.5C114.511 77.996 114.487 77.588 114.487 77.276V70.04H117.415V76.28C117.415 76.68 117.443 77.132 117.499 77.636C117.555 78.132 117.683 78.612 117.883 79.076C118.091 79.532 118.395 79.908 118.795 80.204C119.203 80.5 119.751 80.648 120.439 80.648C120.807 80.648 121.171 80.588 121.531 80.468C121.891 80.348 122.215 80.144 122.503 79.856C122.799 79.56 123.035 79.156 123.211 78.644C123.387 78.132 123.475 77.484 123.475 76.7L125.191 77.432C125.191 78.536 124.975 79.536 124.543 80.432C124.119 81.328 123.491 82.044 122.659 82.58C121.827 83.108 120.803 83.372 119.587 83.372ZM123.823 83V78.98H123.475V70.04H126.379V83H123.823ZM129.75 83V70.04H132.306V73.196L131.994 72.788C132.154 72.356 132.366 71.964 132.63 71.612C132.902 71.252 133.226 70.956 133.602 70.724C133.922 70.508 134.274 70.34 134.658 70.22C135.05 70.092 135.45 70.016 135.858 69.992C136.266 69.96 136.662 69.976 137.046 70.04V72.74C136.662 72.628 136.218 72.592 135.714 72.632C135.218 72.672 134.77 72.812 134.37 73.052C133.97 73.268 133.642 73.544 133.386 73.88C133.138 74.216 132.954 74.6 132.834 75.032C132.714 75.456 132.654 75.916 132.654 76.412V83H129.75ZM143.872 83.36C142.272 83.36 140.972 83 139.972 82.28C138.972 81.56 138.364 80.548 138.148 79.244L141.1 78.788C141.252 79.428 141.588 79.932 142.108 80.3C142.628 80.668 143.284 80.852 144.076 80.852C144.772 80.852 145.308 80.716 145.684 80.444C146.068 80.164 146.26 79.784 146.26 79.304C146.26 79.008 146.188 78.772 146.044 78.596C145.908 78.412 145.604 78.236 145.132 78.068C144.66 77.9 143.936 77.688 142.96 77.432C141.872 77.144 141.008 76.836 140.368 76.508C139.728 76.172 139.268 75.776 138.988 75.32C138.708 74.864 138.568 74.312 138.568 73.664C138.568 72.856 138.78 72.152 139.204 71.552C139.628 70.952 140.22 70.492 140.98 70.172C141.74 69.844 142.636 69.68 143.668 69.68C144.676 69.68 145.568 69.836 146.344 70.148C147.128 70.46 147.76 70.904 148.24 71.48C148.72 72.056 149.016 72.732 149.128 73.508L146.176 74.036C146.104 73.484 145.852 73.048 145.42 72.728C144.996 72.408 144.428 72.228 143.716 72.188C143.036 72.148 142.488 72.252 142.072 72.5C141.656 72.74 141.448 73.08 141.448 73.52C141.448 73.768 141.532 73.98 141.7 74.156C141.868 74.332 142.204 74.508 142.708 74.684C143.22 74.86 143.98 75.076 144.988 75.332C146.02 75.596 146.844 75.9 147.46 76.244C148.084 76.58 148.532 76.984 148.804 77.456C149.084 77.928 149.224 78.5 149.224 79.172C149.224 80.476 148.748 81.5 147.796 82.244C146.852 82.988 145.544 83.36 143.872 83.36ZM153.052 83V80.348H155.944V83H153.052ZM153.052 78.68V65.72H155.944V78.68H153.052Z" fill="#0B2441"/>
<rect width="432" height="48" transform="translate(-47.3711 163.707) rotate(-13.208)" fill="#2189FF"/>
<path d="M-14.2026 185.71L-15.9067 178.449L-18.7047 179.106L-18.9747 177.955L-12.158 176.355L-11.8879 177.506L-14.6859 178.163L-12.9818 185.423L-14.2026 185.71ZM-7.34545 184.286C-7.97242 184.433 -8.55543 184.426 -9.0945 184.265C-9.63059 184.099 -10.0886 183.802 -10.4686 183.373C-10.8456 182.94 -11.1104 182.398 -11.263 181.748C-11.4248 181.058 -11.4365 180.43 -11.2983 179.864C-11.1562 179.296 -10.8859 178.82 -10.4874 178.435C-10.0889 178.049 -9.582 177.785 -8.96672 177.64C-8.32417 177.489 -7.74185 177.511 -7.21975 177.705C-6.69857 177.895 -6.26256 178.238 -5.91172 178.735C-5.55699 179.231 -5.31434 179.862 -5.18376 180.629L-6.40459 180.915L-6.50878 180.471C-6.68839 179.741 -6.95562 179.233 -7.31047 178.946C-7.66143 178.659 -8.11339 178.58 -8.66636 178.71C-9.27775 178.853 -9.69203 179.154 -9.90919 179.612C-10.1263 180.069 -10.1495 180.662 -9.97856 181.391C-9.81588 182.084 -9.53594 182.585 -9.13873 182.894C-8.74243 183.2 -8.25417 183.285 -7.67394 183.149C-7.29231 183.059 -6.98335 182.896 -6.74708 182.66C-6.50783 182.419 -6.34824 182.118 -6.26833 181.759L-4.98176 181.857C-5.09457 182.479 -5.36365 183.005 -5.78899 183.433C-6.21524 183.858 -6.73406 184.142 -7.34545 184.286ZM-10.2949 181.828L-10.5183 180.876L-6.01472 179.819L-5.79126 180.771L-10.2949 181.828ZM-3.79793 183.268L-3.84317 183.075L-1.44146 177.211L-4.69505 177.975L-4.95142 176.883L0.241482 175.664L0.288094 175.863L-2.10915 181.719L1.29048 180.921L1.54684 182.014L-3.79793 183.268ZM8.12345 180.655C7.49259 180.803 6.9121 180.789 6.38197 180.614C5.85185 180.438 5.40173 180.131 5.03162 179.692C4.66449 179.248 4.40416 178.699 4.25061 178.045C4.09616 177.387 4.08894 176.778 4.22898 176.22C4.36809 175.657 4.63691 175.183 5.03543 174.798C5.43303 174.409 5.94142 174.141 6.5606 173.996C7.19146 173.848 7.77195 173.862 8.30208 174.037C8.8322 174.213 9.28232 174.52 9.65243 174.959C10.0225 175.398 10.2839 175.943 10.4365 176.593C10.591 177.251 10.5987 177.862 10.4595 178.424C10.3234 178.982 10.057 179.458 9.6603 179.851C9.2627 180.24 8.75041 180.508 8.12345 180.655ZM7.85338 179.504C8.45698 179.363 8.85923 179.055 9.06014 178.58C9.26403 178.101 9.29057 177.54 9.13977 176.897C8.98531 176.239 8.71005 175.749 8.314 175.427C7.92092 175.1 7.42648 175.007 6.83067 175.147C6.42178 175.243 6.10687 175.415 5.88593 175.664C5.66408 175.909 5.52729 176.211 5.47555 176.568C5.4229 176.921 5.44685 177.312 5.54738 177.741C5.70275 178.403 5.97892 178.897 6.37589 179.222C6.77286 179.548 7.26536 179.642 7.85338 179.504ZM12.4618 179.452L10.9812 173.143L12.0677 172.888L12.4269 174.419L12.2284 174.256C12.2588 174.035 12.3166 173.826 12.4019 173.63C12.4863 173.429 12.5975 173.255 12.7355 173.108C12.8677 172.953 13.0239 172.822 13.204 172.714C13.387 172.601 13.5804 172.515 13.784 172.455C13.9868 172.391 14.1877 172.354 14.3867 172.344L14.6554 173.489C14.4362 173.483 14.2028 173.521 13.9552 173.604C13.7114 173.686 13.5004 173.82 13.3221 174.005C13.1536 174.18 13.0325 174.373 12.9586 174.584C12.8886 174.793 12.8549 175.017 12.8572 175.255C12.8587 175.488 12.8887 175.73 12.9472 175.979L13.6943 179.163L12.4618 179.452ZM18.6199 178.192C18.1526 178.301 17.7411 178.307 17.3855 178.21C17.0289 178.109 16.7355 177.935 16.5052 177.689C16.2779 177.439 16.124 177.142 16.0436 176.799C15.9687 176.48 15.9593 176.186 16.0156 175.919C16.0719 175.651 16.1913 175.407 16.374 175.187C16.5558 174.964 16.7959 174.762 17.0945 174.581C17.3556 174.433 17.6561 174.286 17.9959 174.141C18.3356 173.996 18.6938 173.85 19.0704 173.704C19.4509 173.557 19.8276 173.411 20.2003 173.266L19.8139 173.616C19.7056 173.119 19.5146 172.778 19.2408 172.592C18.9699 172.4 18.5716 172.367 18.0459 172.49C17.7149 172.568 17.4294 172.717 17.1895 172.937C16.9487 173.154 16.8153 173.453 16.7895 173.833L15.5681 173.749C15.5969 173.172 15.7918 172.672 16.153 172.25C16.5181 171.827 17.0648 171.531 17.793 171.36C18.3577 171.227 18.8712 171.209 19.3336 171.306C19.7989 171.398 20.1779 171.63 20.4704 172.001C20.62 172.184 20.7335 172.387 20.8108 172.611C20.8881 172.836 20.9578 173.08 21.02 173.345L21.9316 177.229L20.851 177.483L20.5124 176.04L20.7665 176.178C20.619 176.722 20.3705 177.16 20.0213 177.493C19.675 177.821 19.2079 178.054 18.6199 178.192ZM18.6016 177.142C18.9482 177.061 19.2319 176.93 19.4528 176.751C19.6728 176.568 19.8363 176.363 19.9434 176.137C20.0505 175.91 20.1032 175.688 20.1015 175.471C20.1238 175.269 20.1114 175.05 20.0644 174.814C20.0212 174.578 19.9832 174.39 19.9503 174.249L20.3818 174.302C20.01 174.451 19.6718 174.586 19.3674 174.707C19.0629 174.827 18.7877 174.941 18.5416 175.048C18.2985 175.151 18.085 175.256 17.901 175.365C17.7473 175.463 17.6138 175.568 17.5006 175.681C17.3913 175.793 17.3114 175.916 17.2609 176.051C17.2144 176.186 17.2107 176.336 17.25 176.504C17.2884 176.667 17.3649 176.81 17.4796 176.931C17.5934 177.048 17.7436 177.128 17.9302 177.17C18.1169 177.213 18.3407 177.203 18.6016 177.142ZM25.9955 176.461C25.4075 176.599 24.865 176.572 24.3681 176.38C23.8751 176.188 23.4528 175.868 23.1013 175.42C22.7527 174.968 22.5044 174.426 22.3563 173.796C22.2073 173.161 22.1912 172.567 22.3078 172.014C22.4236 171.456 22.6618 170.983 23.0226 170.595C23.3863 170.201 23.8641 169.935 24.456 169.796C25.0518 169.656 25.5865 169.685 26.06 169.882C26.5366 170.074 26.937 170.397 27.2613 170.851C27.5894 171.304 27.8276 171.846 27.9756 172.477C28.1237 173.108 28.1515 173.699 28.0591 174.251C27.9667 174.802 27.7508 175.274 27.4114 175.666C27.0711 176.054 26.5991 176.319 25.9955 176.461ZM25.9058 175.317C26.3069 175.223 26.6116 175.05 26.8199 174.8C27.0283 174.55 27.1516 174.244 27.1898 173.881C27.228 173.519 27.1959 173.12 27.0936 172.684C26.9912 172.248 26.8404 171.876 26.6411 171.57C26.4456 171.262 26.2014 171.044 25.9083 170.916C25.6191 170.786 25.2837 170.767 24.902 170.856C24.497 170.951 24.1874 171.129 23.9731 171.388C23.7588 171.648 23.6267 171.961 23.5768 172.326C23.5308 172.69 23.5562 173.078 23.6531 173.491C23.7509 173.908 23.9018 174.271 24.106 174.581C24.3131 174.885 24.5665 175.107 24.8662 175.246C25.1698 175.385 25.5164 175.408 25.9058 175.317ZM27.8353 175.844L26.77 171.305L26.6299 171.338L25.7209 167.465L26.9476 167.177L28.9217 175.589L27.8353 175.844ZM32.3788 174.962C31.9115 175.072 31.5001 175.078 31.1444 174.981C30.7879 174.88 30.4944 174.706 30.2642 174.46C30.0369 174.21 29.883 173.913 29.8026 173.57C29.7276 173.251 29.7183 172.957 29.7746 172.689C29.8308 172.421 29.9503 172.178 30.133 171.958C30.3147 171.735 30.5549 171.532 30.8534 171.351C31.1146 171.204 31.4151 171.057 31.7548 170.912C32.0946 170.766 32.4527 170.621 32.8294 170.475C33.2099 170.328 33.5865 170.182 33.9592 170.037L33.5729 170.387C33.4646 169.89 33.2735 169.549 32.9997 169.362C32.7289 169.171 32.3306 169.137 31.8049 169.261C31.4739 169.338 31.1884 169.488 30.9485 169.708C30.7076 169.925 30.5743 170.223 30.5484 170.603L29.3271 170.52C29.3558 169.942 29.5508 169.443 29.912 169.021C30.2771 168.598 30.8238 168.302 31.552 168.131C32.1166 167.998 32.6301 167.98 33.0925 168.077C33.5579 168.169 33.9368 168.401 34.2293 168.772C34.379 168.954 34.4925 169.158 34.5698 169.382C34.6471 169.606 34.7168 169.851 34.7789 170.116L35.6906 174L34.61 174.254L34.2713 172.811L34.5255 172.949C34.3779 173.493 34.1295 173.931 33.7803 174.264C33.434 174.592 32.9668 174.824 32.3788 174.962ZM32.3605 173.913C32.7071 173.832 32.9908 173.701 33.2117 173.522C33.4317 173.339 33.5953 173.134 33.7023 172.908C33.8094 172.681 33.8621 172.459 33.8604 172.242C33.8828 172.039 33.8704 171.821 33.8233 171.585C33.7802 171.349 33.7422 171.16 33.7093 171.02L34.1407 171.073C33.7689 171.222 33.4308 171.357 33.1263 171.477C32.8219 171.598 32.5466 171.712 32.3006 171.819C32.0575 171.921 31.844 172.027 31.66 172.136C31.5062 172.234 31.3728 172.339 31.2596 172.452C31.1502 172.564 31.0704 172.687 31.0199 172.822C30.9733 172.957 30.9697 173.107 31.009 173.275C31.0474 173.438 31.1239 173.581 31.2386 173.702C31.3523 173.819 31.5026 173.899 31.6892 173.941C31.8758 173.983 32.0996 173.974 32.3605 173.913ZM41.0571 175.699L41.4978 172.089L41.7457 173.066L37.4055 166.942L38.6789 166.643L41.962 171.388L41.5882 171.476L42.3239 165.787L43.5623 165.497L42.2195 175.426L41.0571 175.699ZM47.5525 171.401C47.0852 171.511 46.6737 171.517 46.318 171.42C45.9615 171.319 45.6681 171.145 45.4378 170.899C45.2105 170.648 45.0566 170.352 44.9762 170.009C44.9013 169.69 44.8919 169.396 44.9482 169.128C45.0045 168.86 45.1239 168.616 45.3066 168.397C45.4884 168.173 45.7285 167.971 46.0271 167.79C46.2882 167.643 46.5887 167.496 46.9285 167.351C47.2682 167.205 47.6264 167.059 48.003 166.914C48.3835 166.767 48.7602 166.621 49.1329 166.476L48.7465 166.825C48.6382 166.329 48.4472 165.988 48.1734 165.801C47.9025 165.61 47.5042 165.576 46.9785 165.7C46.6475 165.777 46.362 165.926 46.1221 166.147C45.8813 166.364 45.7479 166.662 45.7221 167.042L44.5007 166.959C44.5295 166.381 44.7244 165.881 45.0856 165.46C45.4507 165.037 45.9974 164.74 46.7256 164.569C47.2903 164.437 47.8038 164.419 48.2662 164.516C48.7315 164.608 49.1105 164.84 49.403 165.211C49.5526 165.393 49.6661 165.597 49.7434 165.821C49.8207 166.045 49.8904 166.29 49.9526 166.555L50.8642 170.439L49.7836 170.693L49.445 169.25L49.6991 169.387C49.5516 169.932 49.3031 170.37 48.9539 170.703C48.6076 171.03 48.1405 171.263 47.5525 171.401ZM47.5342 170.352C47.8808 170.27 48.1645 170.14 48.3854 169.961C48.6054 169.778 48.7689 169.573 48.876 169.346C48.9831 169.12 49.0358 168.898 49.0341 168.681C49.0564 168.478 49.044 168.259 48.997 168.024C48.9538 167.787 48.9158 167.599 48.8829 167.459L49.3144 167.512C48.9426 167.661 48.6044 167.795 48.3 167.916C47.9955 168.037 47.7203 168.151 47.4742 168.258C47.2311 168.36 47.0176 168.466 46.8336 168.575C46.6799 168.672 46.5464 168.778 46.4332 168.891C46.3239 169.003 46.244 169.126 46.1935 169.261C46.147 169.395 46.1433 169.546 46.1826 169.714C46.221 169.877 46.2975 170.019 46.4122 170.14C46.526 170.258 46.6762 170.337 46.8628 170.38C47.0495 170.422 47.2733 170.413 47.5342 170.352ZM56.8087 169.044L56.0808 165.942C56.0232 165.697 55.9428 165.451 55.8397 165.204C55.7395 164.952 55.605 164.729 55.436 164.534C55.271 164.339 55.0674 164.198 54.8251 164.111C54.5867 164.023 54.3001 164.018 53.9652 164.097C53.7471 164.148 53.5494 164.233 53.372 164.353C53.1938 164.469 53.0494 164.624 52.9389 164.818C52.8323 165.012 52.7667 165.249 52.7423 165.53C52.7218 165.81 52.7554 166.137 52.8431 166.511L52.0166 166.403C51.8822 165.831 51.8709 165.301 51.9828 164.815C52.0937 164.324 52.3209 163.91 52.6644 163.57C53.0079 163.231 53.464 162.994 54.0325 162.861C54.4687 162.758 54.8512 162.743 55.18 162.813C55.5089 162.884 55.7918 163.013 56.0287 163.2C56.2687 163.382 56.4688 163.595 56.6293 163.841C56.7897 164.087 56.9176 164.334 57.0129 164.583C57.1083 164.832 57.1788 165.054 57.2245 165.249L58.0471 168.753L56.8087 169.044ZM52.3752 170.084L50.8946 163.776L51.9869 163.52L52.4147 165.342L52.5607 165.308L53.6136 169.794L52.3752 170.084ZM62.8671 170.765C62.5283 170.845 62.1869 170.869 61.8429 170.839C61.5028 170.808 61.1781 170.72 60.8687 170.575C60.5603 170.434 60.2852 170.233 60.0435 169.973L61.0365 169.136C61.2359 169.373 61.4767 169.524 61.7591 169.589C62.0415 169.654 62.3229 169.654 62.6032 169.588C62.9498 169.507 63.2312 169.375 63.4472 169.193C63.6642 169.015 63.8063 168.788 63.8733 168.514C63.9442 168.238 63.9352 167.92 63.8464 167.559L63.4323 165.795L63.5784 165.76L62.4748 161.058L63.5554 160.804L65.0758 167.282C65.1151 167.45 65.1467 167.611 65.1707 167.766C65.1946 167.92 65.2088 168.077 65.2133 168.236C65.2234 168.682 65.1343 169.072 64.9461 169.408C64.7617 169.743 64.4908 170.025 64.1334 170.252C63.7799 170.479 63.3578 170.65 62.8671 170.765ZM62.1156 167.983C61.5276 168.121 60.9851 168.095 60.4882 167.903C59.9952 167.711 59.5729 167.391 59.2214 166.943C58.8728 166.491 58.6245 165.949 58.4764 165.318C58.3274 164.684 58.3113 164.09 58.428 163.536C58.5437 162.979 58.782 162.506 59.1427 162.117C59.5064 161.724 59.9842 161.458 60.5761 161.319C61.1719 161.179 61.7066 161.208 62.1801 161.405C62.6567 161.597 63.0571 161.92 63.3814 162.374C63.7096 162.827 63.9477 163.369 64.0957 164C64.2438 164.63 64.2716 165.222 64.1792 165.773C64.0869 166.325 63.8709 166.797 63.5315 167.189C63.1912 167.577 62.7192 167.842 62.1156 167.983ZM62.0259 166.84C62.427 166.745 62.7317 166.573 62.9401 166.323C63.1484 166.073 63.2717 165.767 63.3099 165.404C63.3481 165.042 63.3161 164.643 63.2137 164.207C63.1113 163.77 62.9605 163.399 62.7612 163.092C62.5658 162.785 62.3215 162.567 62.0284 162.439C61.7392 162.309 61.4038 162.289 61.0221 162.379C60.6171 162.474 60.3075 162.651 60.0932 162.911C59.8789 163.171 59.7468 163.484 59.6969 163.849C59.6509 164.213 59.6763 164.601 59.7732 165.014C59.871 165.431 60.0219 165.794 60.2261 166.103C60.4332 166.408 60.6866 166.63 60.9863 166.769C61.29 166.908 61.6365 166.931 62.0259 166.84ZM65.0698 159.358L64.7915 158.172L66.0123 157.886L66.2906 159.072L65.0698 159.358ZM66.793 166.701L65.3124 160.392L66.5333 160.106L68.0139 166.414L66.793 166.701ZM72.1009 165.455L70.1327 157.042L71.371 156.751L72.5774 161.892L74.3412 158.273L75.895 157.908L74.0184 161.677L77.6443 164.154L75.9854 164.543L72.6323 162.125L73.3451 165.163L72.1009 165.455ZM80.6504 163.627C80.2143 163.729 79.8318 163.745 79.5029 163.675C79.1741 163.604 78.8897 163.477 78.6497 163.295C78.4128 163.109 78.2141 162.892 78.0537 162.647C77.8933 162.401 77.7654 162.153 77.67 161.905C77.5746 161.656 77.5041 161.434 77.4584 161.239L76.6359 157.735L77.8742 157.444L78.6022 160.546C78.6598 160.791 78.7386 161.04 78.8388 161.291C78.942 161.538 79.0761 161.759 79.2411 161.955C79.41 162.149 79.6137 162.291 79.852 162.379C80.0943 162.465 80.3829 162.47 80.7178 162.391C80.9359 162.34 81.134 162.256 81.3123 162.141C81.4896 162.021 81.6316 161.864 81.7382 161.671C81.8487 161.476 81.9143 161.239 81.9348 160.959C81.9592 160.678 81.9276 160.351 81.8399 159.977L82.6664 160.085C82.8008 160.657 82.8125 161.189 82.7016 161.679C82.5898 162.165 82.3621 162.578 82.0186 162.918C81.675 163.257 81.219 163.494 80.6504 163.627ZM82.696 162.968L82.2683 161.146L82.1223 161.18L81.0694 156.694L82.3019 156.405L83.7825 162.713L82.696 162.968ZM85.4208 162.329L83.9402 156.02L85.0267 155.765L85.3859 157.296L85.1874 157.133C85.2177 156.912 85.2756 156.703 85.3609 156.506C85.4453 156.306 85.5565 156.132 85.6944 155.984C85.8267 155.83 85.9828 155.699 86.1629 155.591C86.346 155.478 86.5394 155.392 86.743 155.332C86.9457 155.268 87.1466 155.231 87.3457 155.221L87.6144 156.366C87.3952 156.36 87.1618 156.398 86.9141 156.481C86.6704 156.563 86.4594 156.697 86.2811 156.882C86.1126 157.057 85.9915 157.25 85.9176 157.461C85.8476 157.67 85.8138 157.894 85.8162 158.131C85.8177 158.365 85.8477 158.607 85.9062 158.856L86.6533 162.04L85.4208 162.329ZM92.1627 160.925C91.3955 161.105 90.7308 161.083 90.1684 160.857C89.606 160.632 89.1981 160.224 88.9446 159.634L90.1494 159.148C90.3041 159.457 90.544 159.674 90.8692 159.799C91.1973 159.919 91.5717 159.93 91.9922 159.831C92.3739 159.742 92.6535 159.594 92.8311 159.388C93.0126 159.181 93.0714 158.941 93.0074 158.669C92.9699 158.509 92.9008 158.39 92.8001 158.31C92.7024 158.227 92.5223 158.168 92.2598 158.135C91.9973 158.102 91.6033 158.078 91.0776 158.061C90.5035 158.048 90.038 157.999 89.6812 157.915C89.3273 157.825 89.0572 157.689 88.8706 157.507C88.687 157.32 88.5591 157.073 88.4869 156.765C88.3974 156.383 88.4205 156.027 88.5562 155.695C88.692 155.363 88.9247 155.076 89.2541 154.835C89.5875 154.592 90.0015 154.413 90.4961 154.297C90.979 154.183 91.4271 154.158 91.8405 154.222C92.2538 154.285 92.6103 154.429 92.9097 154.655C93.2083 154.876 93.4248 155.169 93.5592 155.531L92.3627 156.053C92.2485 155.759 92.0502 155.553 91.7676 155.434C91.4851 155.316 91.1492 155.294 90.76 155.369C90.3864 155.44 90.1012 155.573 89.9043 155.767C89.7066 155.957 89.636 156.173 89.6927 156.414C89.7256 156.554 89.7963 156.663 89.9048 156.74C90.0172 156.817 90.2105 156.87 90.4846 156.9C90.7588 156.93 91.1578 156.95 91.6816 156.958C92.2432 156.97 92.6994 157.023 93.0502 157.118C93.4001 157.208 93.6683 157.353 93.8546 157.551C94.0439 157.745 94.1765 158.004 94.2523 158.327C94.3986 158.95 94.2854 159.492 93.913 159.954C93.5444 160.414 92.961 160.738 92.1627 160.925ZM96.558 159.715L96.2797 158.529L97.5006 158.243L97.7789 159.428L96.558 159.715ZM96.0645 157.612L94.5839 151.304L95.8047 151.017L97.2853 157.326L96.0645 157.612Z" fill="white"/>
<path d="M114.306 155.55L112.601 148.289L109.804 148.946L109.533 147.795L116.35 146.195L116.62 147.346L113.822 148.002L115.526 155.263L114.306 155.55ZM121.163 154.125C120.536 154.272 119.953 154.265 119.414 154.104C118.878 153.938 118.42 153.641 118.04 153.213C117.663 152.779 117.398 152.238 117.245 151.587C117.083 150.898 117.072 150.27 117.21 149.703C117.352 149.136 117.622 148.66 118.021 148.274C118.419 147.889 118.926 147.624 119.541 147.48C120.184 147.329 120.766 147.351 121.288 147.544C121.81 147.734 122.246 148.078 122.596 148.575C122.951 149.071 123.194 149.702 123.324 150.469L122.104 150.755L121.999 150.311C121.82 149.581 121.553 149.073 121.198 148.786C120.847 148.499 120.395 148.42 119.842 148.55C119.23 148.693 118.816 148.994 118.599 149.451C118.382 149.909 118.359 150.502 118.53 151.23C118.692 151.923 118.972 152.425 119.369 152.734C119.766 153.04 120.254 153.124 120.834 152.988C121.216 152.899 121.525 152.736 121.761 152.5C122 152.258 122.16 151.958 122.24 151.598L123.526 151.697C123.414 152.319 123.145 152.845 122.719 153.273C122.293 153.698 121.774 153.982 121.163 154.125ZM118.213 151.668L117.99 150.716L122.493 149.659L122.717 150.611L118.213 151.668ZM124.71 153.108L124.665 152.915L127.067 147.051L123.813 147.815L123.557 146.722L128.75 145.504L128.796 145.702L126.399 151.559L129.799 150.761L130.055 151.853L124.71 153.108ZM136.632 150.495C136.001 150.643 135.42 150.629 134.89 150.454C134.36 150.278 133.91 149.971 133.54 149.532C133.173 149.088 132.912 148.539 132.759 147.885C132.604 147.227 132.597 146.618 132.737 146.059C132.876 145.497 133.145 145.023 133.544 144.637C133.941 144.248 134.45 143.981 135.069 143.836C135.7 143.688 136.28 143.701 136.81 143.877C137.34 144.052 137.79 144.36 138.161 144.799C138.531 145.238 138.792 145.782 138.945 146.433C139.099 147.091 139.107 147.701 138.968 148.264C138.832 148.822 138.565 149.297 138.168 149.69C137.771 150.079 137.259 150.348 136.632 150.495ZM136.362 149.344C136.965 149.202 137.367 148.894 137.568 148.42C137.772 147.941 137.799 147.38 137.648 146.737C137.493 146.079 137.218 145.589 136.822 145.267C136.429 144.94 135.935 144.847 135.339 144.986C134.93 145.082 134.615 145.255 134.394 145.504C134.172 145.749 134.035 146.05 133.984 146.408C133.931 146.761 133.955 147.152 134.056 147.58C134.211 148.242 134.487 148.736 134.884 149.062C135.281 149.388 135.774 149.482 136.362 149.344ZM140.97 149.292L139.489 142.983L140.576 142.728L140.935 144.259L140.737 144.096C140.767 143.875 140.825 143.666 140.91 143.469C140.994 143.269 141.106 143.095 141.244 142.947C141.376 142.793 141.532 142.662 141.712 142.554C141.895 142.441 142.089 142.355 142.292 142.294C142.495 142.23 142.696 142.194 142.895 142.184L143.164 143.329C142.944 143.323 142.711 143.361 142.463 143.444C142.22 143.526 142.009 143.659 141.83 143.845C141.662 144.02 141.541 144.213 141.467 144.423C141.397 144.633 141.363 144.857 141.365 145.094C141.367 145.328 141.397 145.57 141.455 145.819L142.203 149.002L140.97 149.292ZM147.128 148.031C146.661 148.141 146.249 148.147 145.894 148.05C145.537 147.949 145.244 147.775 145.013 147.529C144.786 147.279 144.632 146.982 144.552 146.639C144.477 146.32 144.468 146.026 144.524 145.758C144.58 145.49 144.7 145.247 144.882 145.027C145.064 144.804 145.304 144.601 145.603 144.42C145.864 144.273 146.164 144.126 146.504 143.981C146.844 143.835 147.202 143.69 147.579 143.544C147.959 143.397 148.336 143.251 148.708 143.106L148.322 143.455C148.214 142.959 148.023 142.618 147.749 142.431C147.478 142.24 147.08 142.206 146.554 142.33C146.223 142.407 145.938 142.556 145.698 142.777C145.457 142.994 145.323 143.292 145.298 143.672L144.076 143.589C144.105 143.011 144.3 142.511 144.661 142.09C145.026 141.667 145.573 141.37 146.301 141.2C146.866 141.067 147.379 141.049 147.842 141.146C148.307 141.238 148.686 141.47 148.979 141.841C149.128 142.023 149.242 142.227 149.319 142.451C149.396 142.675 149.466 142.92 149.528 143.185L150.44 147.069L149.359 147.323L149.021 145.88L149.275 146.018C149.127 146.562 148.879 147 148.529 147.333C148.183 147.66 147.716 147.893 147.128 148.031ZM147.11 146.982C147.456 146.9 147.74 146.77 147.961 146.591C148.181 146.408 148.344 146.203 148.452 145.977C148.559 145.75 148.611 145.528 148.61 145.311C148.632 145.108 148.62 144.889 148.573 144.654C148.529 144.418 148.491 144.229 148.458 144.089L148.89 144.142C148.518 144.291 148.18 144.426 147.876 144.546C147.571 144.667 147.296 144.781 147.05 144.888C146.807 144.99 146.593 145.096 146.409 145.205C146.255 145.303 146.122 145.408 146.009 145.521C145.899 145.633 145.82 145.756 145.769 145.891C145.723 146.025 145.719 146.176 145.758 146.344C145.797 146.507 145.873 146.649 145.988 146.77C146.102 146.888 146.252 146.967 146.438 147.01C146.625 147.052 146.849 147.043 147.11 146.982ZM154.504 146.3C153.916 146.438 153.373 146.412 152.876 146.22C152.383 146.028 151.961 145.708 151.609 145.26C151.261 144.808 151.013 144.266 150.864 143.635C150.716 143.001 150.699 142.407 150.816 141.853C150.932 141.296 151.17 140.823 151.531 140.434C151.894 140.041 152.372 139.775 152.964 139.636C153.56 139.496 154.095 139.524 154.568 139.722C155.045 139.914 155.445 140.237 155.769 140.691C156.098 141.144 156.336 141.686 156.484 142.316C156.632 142.947 156.66 143.539 156.567 144.09C156.475 144.642 156.259 145.114 155.92 145.506C155.579 145.894 155.107 146.159 154.504 146.3ZM154.414 145.157C154.815 145.062 155.12 144.89 155.328 144.64C155.536 144.39 155.66 144.084 155.698 143.721C155.736 143.359 155.704 142.96 155.602 142.523C155.499 142.087 155.349 141.716 155.149 141.409C154.954 141.102 154.71 140.884 154.416 140.756C154.127 140.626 153.792 140.606 153.41 140.696C153.005 140.791 152.696 140.968 152.481 141.228C152.267 141.488 152.135 141.8 152.085 142.166C152.039 142.53 152.064 142.918 152.161 143.331C152.259 143.748 152.41 144.111 152.614 144.42C152.821 144.725 153.075 144.947 153.374 145.086C153.678 145.224 154.025 145.248 154.414 145.157ZM156.343 145.684L155.278 141.145L155.138 141.178L154.229 137.305L155.456 137.017L157.43 145.429L156.343 145.684ZM160.887 144.802C160.42 144.912 160.008 144.918 159.653 144.821C159.296 144.719 159.003 144.546 158.772 144.3C158.545 144.049 158.391 143.753 158.311 143.41C158.236 143.091 158.226 142.797 158.283 142.529C158.339 142.261 158.458 142.017 158.641 141.798C158.823 141.574 159.063 141.372 159.362 141.191C159.623 141.044 159.923 140.897 160.263 140.752C160.603 140.606 160.961 140.46 161.338 140.314C161.718 140.168 162.095 140.022 162.467 139.877L162.081 140.226C161.973 139.73 161.782 139.389 161.508 139.202C161.237 139.011 160.839 138.977 160.313 139.1C159.982 139.178 159.697 139.327 159.457 139.548C159.216 139.765 159.082 140.063 159.057 140.443L157.835 140.36C157.864 139.782 158.059 139.282 158.42 138.861C158.785 138.438 159.332 138.141 160.06 137.97C160.625 137.838 161.138 137.82 161.601 137.917C162.066 138.009 162.445 138.241 162.737 138.612C162.887 138.794 163.001 138.998 163.078 139.222C163.155 139.446 163.225 139.691 163.287 139.956L164.199 143.84L163.118 144.094L162.78 142.651L163.034 142.788C162.886 143.333 162.638 143.771 162.288 144.103C161.942 144.431 161.475 144.664 160.887 144.802ZM160.869 143.753C161.215 143.671 161.499 143.541 161.72 143.362C161.94 143.179 162.103 142.974 162.211 142.747C162.318 142.521 162.37 142.299 162.369 142.082C162.391 141.879 162.379 141.66 162.332 141.425C162.288 141.188 162.25 141 162.217 140.86L162.649 140.913C162.277 141.062 161.939 141.196 161.635 141.317C161.33 141.438 161.055 141.552 160.809 141.659C160.566 141.761 160.352 141.867 160.168 141.976C160.014 142.073 159.881 142.179 159.768 142.291C159.658 142.403 159.579 142.527 159.528 142.662C159.481 142.796 159.478 142.947 159.517 143.114C159.556 143.278 159.632 143.42 159.747 143.541C159.861 143.658 160.011 143.738 160.197 143.781C160.384 143.823 160.608 143.814 160.869 143.753ZM169.565 145.539L170.006 141.929L170.254 142.906L165.914 136.781L167.187 136.483L170.47 141.228L170.096 141.316L170.832 135.627L172.07 135.336L170.728 145.266L169.565 145.539ZM176.061 141.241C175.593 141.351 175.182 141.357 174.826 141.26C174.47 141.158 174.176 140.985 173.946 140.739C173.719 140.488 173.565 140.191 173.484 139.849C173.409 139.529 173.4 139.236 173.456 138.968C173.513 138.7 173.632 138.456 173.815 138.237C173.997 138.013 174.237 137.811 174.535 137.63C174.796 137.482 175.097 137.336 175.437 137.19C175.776 137.045 176.135 136.899 176.511 136.753C176.892 136.606 177.268 136.461 177.641 136.316L177.255 136.665C177.146 136.169 176.955 135.827 176.682 135.641C176.411 135.45 176.012 135.416 175.487 135.539C175.156 135.617 174.87 135.766 174.63 135.987C174.389 136.204 174.256 136.502 174.23 136.882L173.009 136.799C173.038 136.221 173.233 135.721 173.594 135.299C173.959 134.877 174.506 134.58 175.234 134.409C175.798 134.277 176.312 134.259 176.774 134.356C177.24 134.448 177.619 134.679 177.911 135.05C178.061 135.233 178.174 135.436 178.252 135.661C178.329 135.885 178.399 136.13 178.461 136.394L179.372 140.279L178.292 140.532L177.953 139.09L178.207 139.227C178.06 139.771 177.811 140.21 177.462 140.542C177.116 140.87 176.649 141.103 176.061 141.241ZM176.042 140.191C176.389 140.11 176.673 139.98 176.894 139.801C177.114 139.617 177.277 139.413 177.384 139.186C177.491 138.96 177.544 138.738 177.542 138.52C177.565 138.318 177.552 138.099 177.505 137.864C177.462 137.627 177.424 137.439 177.391 137.299L177.823 137.351C177.451 137.5 177.113 137.635 176.808 137.756C176.504 137.877 176.228 137.991 175.982 138.098C175.739 138.2 175.526 138.306 175.342 138.414C175.188 138.512 175.055 138.617 174.941 138.73C174.832 138.842 174.752 138.966 174.702 139.101C174.655 139.235 174.652 139.386 174.691 139.553C174.729 139.717 174.806 139.859 174.92 139.98C175.034 140.097 175.184 140.177 175.371 140.22C175.558 140.262 175.781 140.253 176.042 140.191ZM185.317 138.884L184.589 135.782C184.531 135.537 184.451 135.29 184.348 135.043C184.248 134.792 184.113 134.569 183.944 134.374C183.779 134.179 183.576 134.037 183.333 133.95C183.095 133.863 182.808 133.858 182.473 133.937C182.255 133.988 182.058 134.073 181.88 134.193C181.702 134.309 181.558 134.464 181.447 134.658C181.34 134.852 181.275 135.089 181.25 135.37C181.23 135.65 181.264 135.977 181.351 136.351L180.525 136.243C180.39 135.67 180.379 135.141 180.491 134.654C180.602 134.164 180.829 133.749 181.173 133.41C181.516 133.07 181.972 132.834 182.541 132.7C182.977 132.598 183.359 132.582 183.688 132.653C184.017 132.724 184.3 132.852 184.537 133.039C184.777 133.221 184.977 133.435 185.137 133.681C185.298 133.927 185.426 134.174 185.521 134.423C185.616 134.672 185.687 134.894 185.733 135.088L186.555 138.593L185.317 138.884ZM180.883 139.924L179.403 133.616L180.495 133.359L180.923 135.182L181.069 135.147L182.122 139.634L180.883 139.924ZM191.375 140.605C191.036 140.684 190.695 140.709 190.351 140.679C190.011 140.648 189.686 140.56 189.377 140.415C189.068 140.273 188.793 140.073 188.552 139.813L189.545 138.976C189.744 139.213 189.985 139.364 190.267 139.429C190.55 139.494 190.831 139.494 191.111 139.428C191.458 139.347 191.739 139.215 191.955 139.033C192.172 138.854 192.314 138.628 192.381 138.353C192.452 138.078 192.443 137.76 192.355 137.398L191.941 135.634L192.087 135.6L190.983 130.898L192.064 130.644L193.584 137.122C193.623 137.29 193.655 137.451 193.679 137.605C193.703 137.76 193.717 137.917 193.722 138.076C193.732 138.521 193.642 138.912 193.454 139.248C193.27 139.583 192.999 139.864 192.642 140.092C192.288 140.319 191.866 140.49 191.375 140.605ZM190.624 137.823C190.036 137.961 189.493 137.934 188.996 137.743C188.503 137.55 188.081 137.23 187.73 136.783C187.381 136.331 187.133 135.789 186.985 135.158C186.836 134.523 186.819 133.929 186.936 133.376C187.052 132.819 187.29 132.346 187.651 131.957C188.015 131.564 188.492 131.297 189.084 131.159C189.68 131.019 190.215 131.047 190.688 131.244C191.165 131.436 191.565 131.76 191.89 132.213C192.218 132.666 192.456 133.208 192.604 133.839C192.752 134.47 192.78 135.061 192.687 135.613C192.595 136.165 192.379 136.637 192.04 137.029C191.699 137.417 191.227 137.681 190.624 137.823ZM190.534 136.679C190.935 136.585 191.24 136.413 191.448 136.163C191.657 135.913 191.78 135.606 191.818 135.244C191.856 134.882 191.824 134.482 191.722 134.046C191.62 133.61 191.469 133.239 191.269 132.932C191.074 132.625 190.83 132.407 190.537 132.278C190.247 132.149 189.912 132.129 189.53 132.219C189.125 132.314 188.816 132.491 188.601 132.751C188.387 133.011 188.255 133.323 188.205 133.688C188.159 134.052 188.184 134.441 188.281 134.854C188.379 135.27 188.53 135.634 188.734 135.943C188.941 136.248 189.195 136.47 189.495 136.609C189.798 136.747 190.145 136.771 190.534 136.679ZM193.578 129.198L193.3 128.012L194.521 127.726L194.799 128.911L193.578 129.198ZM195.301 136.54L193.821 130.232L195.041 129.945L196.522 136.254L195.301 136.54ZM200.609 135.295L198.641 126.882L199.879 126.591L201.086 131.732L202.849 128.113L204.403 127.748L202.527 131.517L206.153 133.994L204.494 134.383L201.14 131.965L201.853 135.003L200.609 135.295ZM209.159 133.467C208.722 133.569 208.34 133.585 208.011 133.514C207.682 133.444 207.398 133.317 207.158 133.135C206.921 132.948 206.722 132.732 206.562 132.486C206.401 132.24 206.274 131.993 206.178 131.744C206.083 131.495 206.012 131.274 205.967 131.079L205.144 127.574L206.382 127.284L207.11 130.385C207.168 130.631 207.247 130.879 207.347 131.131C207.45 131.378 207.584 131.599 207.749 131.795C207.918 131.989 208.122 132.13 208.36 132.218C208.602 132.305 208.891 132.309 209.226 132.231C209.444 132.18 209.642 132.096 209.82 131.98C209.998 131.861 210.14 131.704 210.246 131.511C210.357 131.316 210.422 131.079 210.443 130.799C210.467 130.518 210.436 130.19 210.348 129.817L211.175 129.925C211.309 130.497 211.321 131.028 211.21 131.519C211.098 132.005 210.87 132.418 210.527 132.757C210.183 133.097 209.727 133.333 209.159 133.467ZM211.204 132.808L210.776 130.986L210.63 131.02L209.578 126.534L210.81 126.244L212.291 132.553L211.204 132.808ZM213.929 132.169L212.448 125.86L213.535 125.605L213.894 127.135L213.696 126.972C213.726 126.752 213.784 126.543 213.869 126.346C213.953 126.146 214.065 125.972 214.203 125.824C214.335 125.67 214.491 125.539 214.671 125.431C214.854 125.318 215.048 125.231 215.251 125.171C215.454 125.107 215.655 125.07 215.854 125.061L216.123 126.206C215.903 126.2 215.67 126.238 215.422 126.321C215.179 126.402 214.968 126.536 214.789 126.722C214.621 126.897 214.5 127.09 214.426 127.3C214.356 127.51 214.322 127.733 214.324 127.971C214.326 128.205 214.356 128.447 214.414 128.696L215.161 131.879L213.929 132.169ZM220.671 130.765C219.904 130.945 219.239 130.922 218.677 130.697C218.114 130.471 217.706 130.064 217.453 129.474L218.658 128.988C218.812 129.297 219.052 129.514 219.377 129.639C219.705 129.759 220.08 129.77 220.5 129.671C220.882 129.581 221.162 129.434 221.339 129.228C221.521 129.021 221.58 128.781 221.516 128.508C221.478 128.349 221.409 128.229 221.308 128.15C221.211 128.066 221.03 128.008 220.768 127.975C220.506 127.942 220.111 127.917 219.586 127.901C219.012 127.888 218.546 127.839 218.189 127.754C217.836 127.665 217.565 127.529 217.379 127.347C217.195 127.16 217.067 126.912 216.995 126.605C216.906 126.223 216.929 125.866 217.064 125.535C217.2 125.203 217.433 124.916 217.762 124.674C218.096 124.432 218.51 124.253 219.004 124.136C219.487 124.023 219.935 123.998 220.349 124.061C220.762 124.124 221.118 124.269 221.418 124.494C221.716 124.716 221.933 125.008 222.067 125.371L220.871 125.892C220.757 125.599 220.558 125.393 220.276 125.274C219.993 125.155 219.657 125.134 219.268 125.208C218.895 125.28 218.609 125.412 218.412 125.607C218.215 125.797 218.144 126.013 218.201 126.254C218.234 126.394 218.304 126.503 218.413 126.58C218.525 126.657 218.719 126.71 218.993 126.74C219.267 126.77 219.666 126.789 220.19 126.798C220.751 126.81 221.208 126.863 221.558 126.957C221.908 127.048 222.176 127.192 222.363 127.391C222.552 127.585 222.685 127.844 222.761 128.167C222.907 128.79 222.794 129.332 222.421 129.793C222.053 130.254 221.469 130.578 220.671 130.765ZM225.066 129.555L224.788 128.369L226.009 128.082L226.287 129.268L225.066 129.555ZM224.573 127.452L223.092 121.143L224.313 120.857L225.794 127.165L224.573 127.452Z" fill="white"/>
<path d="M242.814 125.389L241.11 118.129L238.312 118.785L238.042 117.635L244.858 116.035L245.129 117.186L242.331 117.842L244.035 125.103L242.814 125.389ZM249.671 123.965C249.044 124.112 248.461 124.105 247.922 123.944C247.386 123.778 246.928 123.481 246.548 123.052C246.171 122.619 245.906 122.077 245.753 121.427C245.592 120.738 245.58 120.11 245.718 119.543C245.86 118.976 246.13 118.499 246.529 118.114C246.928 117.729 247.434 117.464 248.05 117.32C248.692 117.169 249.275 117.19 249.797 117.384C250.318 117.574 250.754 117.918 251.105 118.415C251.459 118.911 251.702 119.542 251.833 120.308L250.612 120.595L250.508 120.151C250.328 119.421 250.061 118.912 249.706 118.626C249.355 118.338 248.903 118.26 248.35 118.389C247.739 118.533 247.324 118.833 247.107 119.291C246.89 119.749 246.867 120.342 247.038 121.07C247.201 121.763 247.48 122.264 247.878 122.574C248.274 122.879 248.762 122.964 249.342 122.828C249.724 122.738 250.033 122.575 250.269 122.339C250.509 122.098 250.668 121.798 250.748 121.438L252.035 121.537C251.922 122.159 251.653 122.684 251.227 123.113C250.801 123.537 250.282 123.821 249.671 123.965ZM246.722 121.508L246.498 120.556L251.002 119.499L251.225 120.451L246.722 121.508ZM253.218 122.948L253.173 122.755L255.575 116.891L252.321 117.654L252.065 116.562L257.258 115.343L257.305 115.542L254.907 121.399L258.307 120.601L258.563 121.693L253.218 122.948ZM265.14 120.334C264.509 120.483 263.929 120.469 263.398 120.293C262.868 120.118 262.418 119.811 262.048 119.371C261.681 118.928 261.421 118.379 261.267 117.724C261.113 117.066 261.105 116.458 261.245 115.899C261.385 115.336 261.653 114.862 262.052 114.477C262.449 114.088 262.958 113.821 263.577 113.675C264.208 113.527 264.788 113.541 265.318 113.717C265.849 113.892 266.299 114.199 266.669 114.638C267.039 115.078 267.3 115.622 267.453 116.273C267.607 116.931 267.615 117.541 267.476 118.104C267.34 118.662 267.073 119.137 266.677 119.53C266.279 119.919 265.767 120.187 265.14 120.334ZM264.87 119.184C265.473 119.042 265.876 118.734 266.077 118.26C266.28 117.78 266.307 117.219 266.156 116.577C266.002 115.919 265.726 115.429 265.33 115.107C264.937 114.78 264.443 114.686 263.847 114.826C263.438 114.922 263.123 115.095 262.902 115.344C262.681 115.589 262.544 115.89 262.492 116.247C262.439 116.601 262.463 116.992 262.564 117.42C262.719 118.082 262.995 118.576 263.392 118.902C263.789 119.228 264.282 119.322 264.87 119.184ZM269.478 119.131L267.998 112.823L269.084 112.568L269.443 114.098L269.245 113.935C269.275 113.715 269.333 113.506 269.418 113.309C269.503 113.108 269.614 112.934 269.752 112.787C269.884 112.633 270.04 112.502 270.22 112.394C270.403 112.281 270.597 112.194 270.8 112.134C271.003 112.07 271.204 112.033 271.403 112.024L271.672 113.168C271.453 113.162 271.219 113.201 270.972 113.284C270.728 113.365 270.517 113.499 270.339 113.685C270.17 113.86 270.049 114.053 269.975 114.263C269.905 114.473 269.871 114.696 269.874 114.934C269.875 115.168 269.905 115.409 269.964 115.659L270.711 118.842L269.478 119.131ZM275.636 117.871C275.169 117.981 274.758 117.987 274.402 117.89C274.045 117.788 273.752 117.615 273.522 117.369C273.294 117.118 273.14 116.822 273.06 116.479C272.985 116.16 272.976 115.866 273.032 115.598C273.088 115.33 273.208 115.086 273.39 114.867C273.572 114.643 273.812 114.441 274.111 114.26C274.372 114.112 274.673 113.966 275.012 113.82C275.352 113.675 275.71 113.529 276.087 113.383C276.467 113.237 276.844 113.091 277.217 112.946L276.83 113.295C276.722 112.799 276.531 112.457 276.257 112.271C275.986 112.08 275.588 112.046 275.062 112.169C274.731 112.247 274.446 112.396 274.206 112.617C273.965 112.834 273.832 113.132 273.806 113.512L272.585 113.429C272.613 112.851 272.808 112.351 273.169 111.93C273.535 111.507 274.081 111.21 274.809 111.039C275.374 110.907 275.888 110.889 276.35 110.986C276.815 111.078 277.194 111.309 277.487 111.68C277.636 111.863 277.75 112.067 277.827 112.291C277.905 112.515 277.974 112.76 278.036 113.024L278.948 116.909L277.867 117.163L277.529 115.72L277.783 115.857C277.635 116.401 277.387 116.84 277.038 117.172C276.691 117.5 276.224 117.733 275.636 117.871ZM275.618 116.821C275.965 116.74 276.248 116.61 276.469 116.431C276.689 116.248 276.853 116.043 276.96 115.816C277.067 115.59 277.12 115.368 277.118 115.151C277.14 114.948 277.128 114.729 277.081 114.494C277.038 114.257 277 114.069 276.967 113.929L277.398 113.982C277.026 114.13 276.688 114.265 276.384 114.386C276.079 114.507 275.804 114.621 275.558 114.728C275.315 114.83 275.101 114.936 274.917 115.045C274.764 115.142 274.63 115.248 274.517 115.36C274.408 115.472 274.328 115.596 274.277 115.731C274.231 115.865 274.227 116.016 274.266 116.183C274.305 116.347 274.381 116.489 274.496 116.61C274.61 116.727 274.76 116.807 274.947 116.85C275.133 116.892 275.357 116.883 275.618 116.821ZM283.012 116.14C282.424 116.278 281.881 116.251 281.385 116.06C280.892 115.867 280.469 115.547 280.118 115.1C279.769 114.647 279.521 114.106 279.373 113.475C279.224 112.84 279.208 112.246 279.324 111.693C279.44 111.136 279.678 110.663 280.039 110.274C280.403 109.881 280.881 109.614 281.472 109.475C282.068 109.336 282.603 109.364 283.076 109.561C283.553 109.753 283.953 110.076 284.278 110.53C284.606 110.983 284.844 111.525 284.992 112.156C285.14 112.787 285.168 113.378 285.076 113.93C284.983 114.482 284.767 114.954 284.428 115.345C284.087 115.734 283.616 115.998 283.012 116.14ZM282.922 114.996C283.323 114.902 283.628 114.73 283.836 114.48C284.045 114.229 284.168 113.923 284.206 113.561C284.244 113.199 284.212 112.799 284.11 112.363C284.008 111.927 283.857 111.556 283.657 111.249C283.462 110.942 283.218 110.724 282.925 110.595C282.635 110.466 282.3 110.446 281.918 110.536C281.513 110.631 281.204 110.808 280.99 111.068C280.775 111.328 280.643 111.64 280.593 112.005C280.547 112.369 280.573 112.758 280.669 113.171C280.767 113.587 280.918 113.95 281.122 114.26C281.329 114.565 281.583 114.787 281.883 114.926C282.186 115.064 282.533 115.088 282.922 114.996ZM284.852 115.523L283.786 110.985L283.646 111.018L282.737 107.145L283.964 106.857L285.938 115.268L284.852 115.523ZM289.395 114.642C288.928 114.752 288.516 114.758 288.161 114.66C287.804 114.559 287.511 114.386 287.281 114.14C287.053 113.889 286.899 113.592 286.819 113.25C286.744 112.93 286.735 112.637 286.791 112.369C286.847 112.101 286.967 111.857 287.149 111.638C287.331 111.414 287.571 111.212 287.87 111.031C288.131 110.883 288.431 110.737 288.771 110.591C289.111 110.446 289.469 110.3 289.846 110.154C290.226 110.007 290.603 109.861 290.976 109.716L290.589 110.066C290.481 109.57 290.29 109.228 290.016 109.042C289.745 108.851 289.347 108.817 288.821 108.94C288.49 109.018 288.205 109.167 287.965 109.388C287.724 109.604 287.591 109.903 287.565 110.283L286.344 110.2C286.372 109.622 286.567 109.122 286.928 108.7C287.294 108.278 287.84 107.981 288.568 107.81C289.133 107.678 289.647 107.66 290.109 107.757C290.574 107.849 290.953 108.08 291.246 108.451C291.395 108.634 291.509 108.837 291.586 109.062C291.663 109.286 291.733 109.53 291.795 109.795L292.707 113.68L291.626 113.933L291.288 112.491L291.542 112.628C291.394 113.172 291.146 113.611 290.797 113.943C290.45 114.271 289.983 114.504 289.395 114.642ZM289.377 113.592C289.724 113.511 290.007 113.381 290.228 113.201C290.448 113.018 290.612 112.814 290.719 112.587C290.826 112.361 290.879 112.139 290.877 111.921C290.899 111.719 290.887 111.5 290.84 111.264C290.797 111.028 290.759 110.84 290.726 110.7L291.157 110.752C290.785 110.901 290.447 111.036 290.143 111.157C289.838 111.278 289.563 111.392 289.317 111.499C289.074 111.601 288.86 111.706 288.676 111.815C288.523 111.913 288.389 112.018 288.276 112.131C288.167 112.243 288.087 112.367 288.036 112.502C287.99 112.636 287.986 112.787 288.025 112.954C288.064 113.118 288.14 113.26 288.255 113.381C288.369 113.498 288.519 113.578 288.706 113.62C288.892 113.663 289.116 113.654 289.377 113.592ZM298.073 115.378L298.514 111.768L298.762 112.745L294.422 106.621L295.695 106.322L298.978 111.068L298.605 111.155L299.34 105.467L300.579 105.176L299.236 115.106L298.073 115.378ZM304.569 111.081C304.102 111.19 303.69 111.197 303.334 111.099C302.978 110.998 302.684 110.824 302.454 110.579C302.227 110.328 302.073 110.031 301.993 109.688C301.918 109.369 301.908 109.076 301.965 108.808C302.021 108.54 302.14 108.296 302.323 108.076C302.505 107.853 302.745 107.651 303.043 107.47C303.305 107.322 303.605 107.176 303.945 107.03C304.285 106.885 304.643 106.739 305.019 106.593C305.4 106.446 305.777 106.3 306.149 106.155L305.763 106.505C305.655 106.008 305.464 105.667 305.19 105.481C304.919 105.29 304.521 105.256 303.995 105.379C303.664 105.457 303.378 105.606 303.139 105.827C302.898 106.043 302.764 106.342 302.738 106.722L301.517 106.638C301.546 106.061 301.741 105.561 302.102 105.139C302.467 104.717 303.014 104.42 303.742 104.249C304.307 104.116 304.82 104.099 305.283 104.195C305.748 104.288 306.127 104.519 306.419 104.89C306.569 105.073 306.683 105.276 306.76 105.5C306.837 105.725 306.907 105.969 306.969 106.234L307.881 110.119L306.8 110.372L306.461 108.929L306.716 109.067C306.568 109.611 306.32 110.049 305.97 110.382C305.624 110.71 305.157 110.943 304.569 111.081ZM304.551 110.031C304.897 109.95 305.181 109.819 305.402 109.64C305.622 109.457 305.785 109.252 305.892 109.026C306 108.799 306.052 108.578 306.05 108.36C306.073 108.158 306.06 107.939 306.013 107.703C305.97 107.467 305.932 107.279 305.899 107.138L306.331 107.191C305.959 107.34 305.621 107.475 305.316 107.596C305.012 107.716 304.737 107.83 304.491 107.937C304.248 108.04 304.034 108.145 303.85 108.254C303.696 108.352 303.563 108.457 303.45 108.57C303.34 108.682 303.26 108.805 303.21 108.941C303.163 109.075 303.16 109.226 303.199 109.393C303.237 109.557 303.314 109.699 303.429 109.82C303.542 109.937 303.693 110.017 303.879 110.059C304.066 110.102 304.29 110.092 304.551 110.031ZM313.825 108.723L313.097 105.622C313.04 105.376 312.959 105.13 312.856 104.883C312.756 104.631 312.621 104.408 312.452 104.214C312.287 104.018 312.084 103.877 311.842 103.79C311.603 103.702 311.316 103.698 310.982 103.776C310.764 103.827 310.566 103.913 310.388 104.033C310.21 104.148 310.066 104.303 309.955 104.498C309.849 104.691 309.783 104.929 309.759 105.21C309.738 105.49 309.772 105.817 309.86 106.19L309.033 106.082C308.899 105.51 308.887 104.981 308.999 104.494C309.11 104.004 309.337 103.589 309.681 103.25C310.024 102.91 310.48 102.674 311.049 102.54C311.485 102.438 311.868 102.422 312.196 102.493C312.525 102.563 312.808 102.692 313.045 102.879C313.285 103.061 313.485 103.275 313.646 103.521C313.806 103.767 313.934 104.014 314.029 104.263C314.125 104.512 314.195 104.733 314.241 104.928L315.064 108.433L313.825 108.723ZM309.392 109.764L307.911 103.455L309.003 103.199L309.431 105.021L309.577 104.987L310.63 109.473L309.392 109.764ZM319.884 110.445C319.545 110.524 319.203 110.549 318.859 110.519C318.519 110.488 318.195 110.399 317.885 110.254C317.577 110.113 317.302 109.913 317.06 109.653L318.053 108.816C318.252 109.053 318.493 109.204 318.776 109.269C319.058 109.334 319.339 109.334 319.62 109.268C319.966 109.186 320.248 109.055 320.464 108.873C320.681 108.694 320.823 108.468 320.89 108.193C320.961 107.918 320.952 107.599 320.863 107.238L320.449 105.474L320.595 105.44L319.491 100.738L320.572 100.484L322.092 106.962C322.131 107.129 322.163 107.29 322.187 107.445C322.211 107.6 322.225 107.756 322.23 107.916C322.24 108.361 322.151 108.752 321.962 109.088C321.778 109.423 321.507 109.704 321.15 109.932C320.796 110.159 320.374 110.33 319.884 110.445ZM319.132 107.663C318.544 107.801 318.002 107.774 317.505 107.582C317.012 107.39 316.589 107.07 316.238 106.623C315.889 106.17 315.641 105.629 315.493 104.998C315.344 104.363 315.328 103.769 315.444 103.216C315.56 102.659 315.798 102.186 316.159 101.797C316.523 101.403 317.001 101.137 317.593 100.998C318.188 100.858 318.723 100.887 319.197 101.084C319.673 101.276 320.073 101.599 320.398 102.053C320.726 102.506 320.964 103.048 321.112 103.679C321.26 104.31 321.288 104.901 321.196 105.453C321.103 106.005 320.887 106.476 320.548 106.868C320.208 107.256 319.736 107.521 319.132 107.663ZM319.042 106.519C319.443 106.425 319.748 106.253 319.956 106.002C320.165 105.752 320.288 105.446 320.326 105.084C320.365 104.721 320.332 104.322 320.23 103.886C320.128 103.45 319.977 103.078 319.778 102.772C319.582 102.464 319.338 102.246 319.045 102.118C318.756 101.989 318.42 101.969 318.039 102.058C317.634 102.153 317.324 102.331 317.11 102.591C316.895 102.851 316.763 103.163 316.713 103.528C316.667 103.892 316.693 104.281 316.79 104.693C316.887 105.11 317.038 105.473 317.242 105.783C317.45 106.088 317.703 106.309 318.003 106.449C318.306 106.587 318.653 106.61 319.042 106.519ZM322.086 99.0376L321.808 97.8518L323.029 97.5653L323.307 98.7511L322.086 99.0376ZM323.809 106.38L322.329 100.072L323.55 99.785L325.03 106.094L323.809 106.38ZM329.117 105.134L327.149 96.7216L328.387 96.4309L329.594 101.571L331.358 97.9525L332.911 97.5878L331.035 101.356L334.661 103.833L333.002 104.223L329.649 101.805L330.362 104.842L329.117 105.134ZM337.667 103.307C337.231 103.409 336.848 103.425 336.519 103.354C336.19 103.283 335.906 103.157 335.666 102.975C335.429 102.788 335.231 102.572 335.07 102.326C334.91 102.08 334.782 101.833 334.686 101.584C334.591 101.335 334.521 101.113 334.475 100.919L333.652 97.414L334.891 97.1233L335.619 100.225C335.676 100.47 335.755 100.719 335.855 100.971C335.958 101.218 336.092 101.439 336.258 101.634C336.426 101.829 336.63 101.97 336.868 102.058C337.111 102.145 337.399 102.149 337.734 102.07C337.952 102.019 338.15 101.936 338.329 101.82C338.506 101.7 338.648 101.544 338.755 101.35C338.865 101.156 338.931 100.919 338.951 100.639C338.976 100.358 338.944 100.03 338.856 99.6562L339.683 99.7642C339.817 100.337 339.829 100.868 339.718 101.358C339.606 101.845 339.378 102.258 339.035 102.597C338.691 102.937 338.235 103.173 337.667 103.307ZM339.712 102.648L339.285 100.825L339.139 100.86L338.086 96.3734L339.318 96.0842L340.799 102.393L339.712 102.648ZM342.437 102.008L340.957 95.6997L342.043 95.4447L342.402 96.9751L342.204 96.8121C342.234 96.5914 342.292 96.3826 342.377 96.1859C342.462 95.9853 342.573 95.8113 342.711 95.6639C342.843 95.5096 342.999 95.3785 343.179 95.2705C343.362 95.1576 343.556 95.0712 343.759 95.0111C343.962 94.947 344.163 94.9102 344.362 94.9004L344.631 96.0453C344.412 96.0392 344.178 96.0776 343.931 96.1604C343.687 96.2422 343.476 96.376 343.297 96.5616C343.129 96.7367 343.008 96.9295 342.934 97.14C342.864 97.3495 342.83 97.5731 342.833 97.8109C342.834 98.0447 342.864 98.2863 342.923 98.5355L343.67 101.719L342.437 102.008ZM349.179 100.605C348.412 100.785 347.747 100.762 347.185 100.537C346.622 100.311 346.214 99.9035 345.961 99.3138L347.166 98.8277C347.32 99.1365 347.56 99.3535 347.886 99.4785C348.214 99.5987 348.588 99.6094 349.009 99.5107C349.39 99.4211 349.67 99.2733 349.848 99.0673C350.029 98.8604 350.088 98.6206 350.024 98.348C349.986 98.1883 349.917 98.069 349.817 97.9899C349.719 97.906 349.539 97.8476 349.276 97.8147C349.014 97.7818 348.62 97.7572 348.094 97.7409C347.52 97.7277 347.054 97.6788 346.698 97.5941C346.344 97.5045 346.074 97.3687 345.887 97.1865C345.703 96.9995 345.576 96.7522 345.503 96.4445C345.414 96.0629 345.437 95.7062 345.573 95.3744C345.708 95.0426 345.941 94.7558 346.271 94.5141C346.604 94.2716 347.018 94.0922 347.512 93.9762C347.995 93.8628 348.444 93.8378 348.857 93.901C349.27 93.9642 349.627 94.1086 349.926 94.3341C350.225 94.5558 350.441 94.848 350.576 95.2109L349.379 95.7321C349.265 95.4384 349.067 95.2323 348.784 95.1137C348.501 94.9951 348.166 94.9733 347.776 95.0482C347.403 95.1195 347.118 95.2521 346.921 95.4463C346.723 95.6365 346.652 95.8523 346.709 96.0937C346.742 96.2339 346.813 96.3426 346.921 96.4199C347.034 96.4962 347.227 96.5495 347.501 96.5796C347.775 96.6098 348.174 96.6291 348.698 96.6377C349.26 96.6497 349.716 96.7029 350.067 96.7972C350.417 96.8876 350.685 97.0322 350.871 97.2309C351.06 97.4248 351.193 97.6833 351.269 98.0065C351.415 98.6296 351.302 99.1718 350.929 99.6331C350.561 100.093 349.977 100.417 349.179 100.605ZM353.574 99.3944L353.296 98.2086L354.517 97.9221L354.795 99.1079L353.574 99.3944ZM353.081 97.2915L351.6 90.983L352.821 90.6964L354.302 97.005L353.081 97.2915Z" fill="white"/>
</g>
<defs>
<clipPath id="clip0_1_91">
<rect width="280" height="210" rx="44" fill="white"/>
</clipPath>
</defs>
</svg>
